<svg width="150" height="150" viewBox="0 0 150 150" fill="none" xmlns="http://www.w3.org/2000/svg">
<path d="M104.85 25L134.244 41.6667L104.85 58.3333L75.4558 41.6667L104.85 25Z" fill="#F39100"/>
<path d="M104.85 58.3335L134.244 75.0002L104.85 91.6668L75.4558 75.0002L104.85 58.3335Z" fill="#C00216"/>
<path d="M104.85 91.6665L134.244 108.333L104.85 125L75.4558 108.333L104.85 91.6665Z" fill="#FBB900"/>
<path d="M46.0607 25L75.4546 41.6667L46.0607 58.3333L16.6667 41.6667L46.0607 25Z" fill="#FBB900"/>
<path d="M75.4552 8.3335L104.849 25.0002L75.4552 41.6668L46.0613 25.0002L75.4552 8.3335Z" fill="#FFCF00"/>
<path d="M46.0607 58.3335L75.4546 75.0002L46.0607 91.6668L16.6667 75.0002L46.0607 58.3335Z" fill="#9B0332"/>
<path d="M75.4552 74.9998L46.0613 58.3332L75.4552 41.6665V74.9998Z" fill="#CB060B"/>
<path d="M134.244 108.333L104.85 91.6667L134.244 75V108.333Z" fill="#FFCF00"/>
<path d="M134.244 74.9998L104.85 58.3332L134.244 41.6665V74.9998Z" fill="#E7410E"/>
<path d="M134.244 41.6668L104.85 25.0002L134.244 8.3335V41.6668Z" fill="#FBB900"/>
<path d="M16.6667 108.333L46.0607 91.6667L16.6667 75V108.333Z" fill="#E7410E"/>
<path d="M16.6667 74.9998L46.0607 58.3332L16.6667 41.6665V74.9998Z" fill="#E6262F"/>
<path d="M16.6667 41.6668L46.0607 25.0002L16.6667 8.3335V41.6668Z" fill="#FFDE0C"/>
<path d="M75.4558 74.9998L104.85 58.3332L75.4558 41.6665V74.9998Z" fill="#A71321"/>
<path d="M75.4552 108.333L46.0613 91.6667L75.4552 75V108.333Z" fill="#7E0C3E"/>
<path d="M75.4558 108.333L104.85 91.6667L75.4558 75V108.333Z" fill="#5F0021"/>
<path d="M46.0607 91.6665L75.4546 108.333L46.0607 125L16.6667 108.333L46.0607 91.6665Z" fill="#F39100"/>
<path d="M75.4552 108.333L104.849 125L75.4552 141.667L46.0613 125L75.4552 108.333Z" fill="#FFCF00"/>
</svg>
